<svg version="1.1" id="Layer_1" xmlns="http://www.w3.org/2000/svg"
    xmlns:xlink="http://www.w3.org/1999/xlink" viewBox="0 0 512 512" xml:space="preserve" fill="#000000">
    <g id="SVGRepo_bgCarrier" stroke-width="0"></g>
    <g id="SVGRepo_tracerCarrier" stroke-linecap="round" stroke-linejoin="round"></g>
    <g id="SVGRepo_iconCarrier">
        <path style="fill:#0069A3;"
            d="M488,504H301.989c-8.836,0-16-7.164-16-16s7.164-16,16-16h170.011V301.989c0-8.836,7.164-16,16-16 s16,7.164,16,16V488C504,496.836,496.836,504,488,504z M210.011,504H24c-8.836,0-16-7.164-16-16V301.989c0-8.836,7.164-16,16-16 s16,7.164,16,16v170.011h170.011c8.836,0,16,7.164,16,16S218.847,504,210.011,504z M488,226.011c-8.836,0-16-7.164-16-16V39.999 H301.989c-8.836,0-16-7.164-16-16s7.164-16,16-16H488c8.836,0,16,7.164,16,16v186.011C504,218.847,496.836,226.011,488,226.011z M24,226.011c-8.836,0-16-7.164-16-16V24c0-8.836,7.164-16,16-16h186.011c8.836,0,16,7.164,16,16s-7.164,16-16,16H39.999v170.011 C39.999,218.847,32.836,226.011,24,226.011z">
        </path>
        <circle style="fill:#F5DF5D;" cx="255.996" cy="256.231" r="178.131"></circle>
        <path style="opacity:0.1;enable-background:new ;"
            d="M252.226,313.104L252.226,313.104c-12.19,0-22.071-9.881-22.071-22.071 v-34.751c0-12.19,9.881-22.071,22.071-22.071l0,0c12.19,0,22.071,9.881,22.071,22.071v34.751 C274.297,303.222,264.415,313.104,252.226,313.104z">
        </path>
        <path style="opacity:0.1;enable-background:new ;"
            d="M177.169,205.606c52.647,0,100.899-18.798,138.426-50.039 c25.555,14.47,55.083,22.739,86.547,22.739c4.647,0,9.249-0.197,13.806-0.554c-29.016-59.026-89.733-99.655-159.948-99.655 c-98.38,0-178.134,79.753-178.134,178.134s79.753,178.134,178.135,178.134c52.924,0,100.448-23.088,133.074-59.731 c-31.474,28.023-72.945,45.06-118.403,45.06c-98.382,0-178.134-79.753-178.134-178.134c0-17.448,2.518-34.305,7.197-50.238 C123.78,200.538,149.879,205.606,177.169,205.606z">
        </path>
        <path id="SVGCleanerId_0" style="fill:#394049;"
            d="M255.999,64.199c-72.438,0-135.498,40.116-168.202,99.336 c-2.259,4.091-0.544,9.218,3.717,11.136c25.881,11.649,54.585,18.139,84.808,18.139c50.312,0,96.423-17.965,132.286-47.819 c24.421,13.828,52.639,21.73,82.707,21.73c6.633,0,13.175-0.387,19.607-1.137c6.479-0.755,9.928-8.093,6.384-13.569 C383.097,99.172,323.637,64.199,255.999,64.199z">
        </path>
        <g>
            <path id="SVGCleanerId_0_1_" style="fill:#394049;"
                d="M255.999,64.199c-72.438,0-135.498,40.116-168.202,99.336 c-2.259,4.091-0.544,9.218,3.717,11.136c25.881,11.649,54.585,18.139,84.808,18.139c50.312,0,96.423-17.965,132.286-47.819 c24.421,13.828,52.639,21.73,82.707,21.73c6.633,0,13.175-0.387,19.607-1.137c6.479-0.755,9.928-8.093,6.384-13.569 C383.097,99.172,323.637,64.199,255.999,64.199z">
            </path>
        </g>
        <path style="opacity:0.2;enable-background:new ;"
            d="M417.498,152.358c-0.986,0.561-2.106,0.945-3.338,1.089 c-6.432,0.75-12.974,1.137-19.607,1.137c-28.81,0-55.923-7.255-79.624-20.026c-1.897-1.022-4.215-0.753-5.895,0.596 c-35.447,28.475-80.468,45.519-129.473,45.519c-30.224,0-58.927-6.491-84.808-18.139c-1.89-0.851-3.277-2.334-4.04-4.078 c-0.994,1.678-1.97,3.368-2.915,5.078c-2.268,4.107-0.46,9.259,3.819,11.182c25.855,11.62,54.524,18.095,84.708,18.095 c50.312,0,96.423-17.965,132.286-47.819c24.421,13.828,52.639,21.73,82.707,21.73c6.633,0,13.175-0.387,19.607-1.137 C417.27,164.845,420.691,157.793,417.498,152.358z">
        </path>
        <path style="fill:#E45D4C;"
            d="M255.999,309.33L255.999,309.33c-12.19,0-22.071-9.881-22.071-22.071v-34.751 c0-12.19,9.881-22.071,22.071-22.071l0,0c12.19,0,22.071,9.881,22.071,22.071v34.751C278.071,299.448,268.189,309.33,255.999,309.33 z">
        </path>
        <path style="opacity:0.1;enable-background:new ;"
            d="M260.87,304.225L260.87,304.225c-12.19,0-22.071-9.881-22.071-22.07 v-34.752c0-4.612,1.419-8.892,3.838-12.432c-5.284,4.032-8.708,10.377-8.708,17.537v34.751c0,12.19,9.881,22.071,22.071,22.071 c7.576,0,14.258-3.821,18.232-9.638C270.521,302.524,265.899,304.225,260.87,304.225z">
        </path>
        <path
            d="M210.011,464.001H47.999V301.989c0-13.234-10.766-24-24-24s-24,10.766-24,24V488c0,13.234,10.766,24,24,24h186.011 c13.234,0,24-10.766,24-24C234.01,474.766,223.244,464.001,210.011,464.001z M210.011,496H24c-4.412,0-8-3.588-8-8V301.989 c0-4.411,3.588-8,8-8c4.411,0,8,3.589,8,8v170.011c0,4.418,3.582,8,8,8h170.011c4.411,0,8,3.589,8,8 C218.011,492.412,214.421,496,210.011,496z M24,234.01c13.234,0,24-10.766,24-24V47.999h162.012c13.234,0,24-10.766,24-24 s-10.766-24-24-24H24C10.766,0,0,10.766,0,24v186.011C0,223.244,10.766,234.01,24,234.01z M16,24c0-4.412,3.588-8,8-8h186.011 c4.411,0,8,3.588,8,8c0,4.411-3.589,8-8,8H39.999c-4.418,0-8,3.582-8,8v170.011c0,4.411-3.589,8-8,8c-4.412,0-8-3.589-8-8V24z M488,0H301.989c-13.234,0-24,10.766-24,24s10.766,24,24,24h162.011v162.012c0,13.234,10.766,24,24,24s24-10.766,24-24V24 C512,10.766,501.234,0,488,0z M496,210.011c0,4.411-3.588,8-8,8c-4.411,0-8-3.589-8-8V39.999c0-4.418-3.582-8-8-8H301.989 c-4.411,0-8-3.589-8-8c0-4.412,3.589-8,8-8H488c4.412,0,8,3.588,8,8V210.011z M190.63,247.82c0,4.418,3.582,8,8,8s8-3.582,8-8 c0-19.621-15.962-35.583-35.583-35.583s-35.583,15.962-35.583,35.583c0,4.418,3.582,8,8,8c4.418,0,8-3.582,8-8 c0-10.799,8.785-19.584,19.584-19.584C181.844,228.237,190.63,237.022,190.63,247.82z M488,277.99c-13.234,0-24,10.766-24,24 v162.011H301.989c-13.234,0-24,10.766-24,24s10.766,24,24,24H488c13.234,0,24-10.766,24-24V301.989 C512,288.755,501.234,277.99,488,277.99z M496,488c0,4.412-3.588,8-8,8H301.989c-4.411,0-8-3.588-8-8c0-4.411,3.589-8,8-8h170.011 c4.418,0,8-3.582,8-8V301.989c0-4.411,3.589-8,8-8c4.412,0,8,3.589,8,8V488z M442.134,256.231c0-30.262-7.374-59.997-21.353-86.58 c1.796-1.53,3.281-3.444,4.33-5.669c2.498-5.304,2.091-11.403-1.088-16.312c-37.078-57.276-99.89-91.47-168.022-91.47 c-72.825,0-139.96,39.646-175.206,103.468c-2.152,3.899-2.581,8.555-1.175,12.773c1.12,3.362,3.349,6.231,6.258,8.192 c-10.616,23.803-16.011,49.191-16.011,75.598c0,102.635,83.5,186.134,186.134,186.134S442.134,358.866,442.134,256.231z M255.999,72.198c62.684,0,120.475,31.464,154.592,84.165c0.067,0.103,0.244,0.377,0.044,0.802c-0.198,0.422-0.518,0.46-0.638,0.473 c-6.163,0.719-12.448,1.084-18.68,1.084c-27.623,0-54.86-7.155-78.766-20.691c-2.895-1.639-6.503-1.315-9.06,0.813 c-35.609,29.642-80.771,45.967-127.168,45.967c-28.392,0-55.821-5.866-81.523-17.408C127.23,108.679,188.999,72.198,255.999,72.198z M255.999,426.366c-93.813,0-170.134-76.322-170.134-170.134c0-24.178,4.944-47.415,14.672-69.193 c24.169,9.135,49.598,13.773,75.786,13.773c48.305,0,95.371-16.377,133.162-46.23c25.117,13.191,53.29,20.141,81.831,20.141 c4.575,0,9.174-0.195,13.746-0.549c13.794,25.021,21.072,53.28,21.072,82.059C426.135,350.044,349.813,426.366,255.999,426.366z M324.96,295.26c-4.418,0-8,3.582-8,8c0,33.613-27.347,60.959-60.959,60.959s-60.959-27.347-60.959-60.959c0-4.418-3.582-8-8-8 c-4.418,0-8,3.582-8,8c0,42.436,34.524,76.959,76.959,76.959s76.959-34.524,76.959-76.959 C332.959,298.841,329.378,295.26,324.96,295.26z M340.954,212.237c-19.62,0-35.583,15.962-35.583,35.583c0,4.418,3.582,8,8,8 s8-3.582,8-8c0-10.799,8.785-19.584,19.584-19.584s19.584,8.785,19.584,19.584c0,4.418,3.582,8,8,8c4.418,0,8-3.582,8-8 C376.537,228.199,360.575,212.237,340.954,212.237z">
        </path>
    </g>
</svg>